<?xml version="1.0" encoding="UTF-8"?>
<svg id="a-0" xmlns="http://www.w3.org/2000/svg" viewBox="0 0 1000 1000">
  <defs>
    <style>
      .cls-1 {
        fill: #fff;
      }

      .cls-2 {
        fill: #151a2d;
      }

      .cls-3 {
        fill: #ffa400;
      }
    </style>
  </defs>
  <rect class="cls-2" width="1000" height="1000"/>
  <g id="tight-bounds">
    <g>
      <g id="text-0">
        <path class="cls-1" d="M273.42,369.8v129.35h-26.79v-80.2l-23.1,49.89h-23.28l-23.1-49.71v80.02h-26.61v-129.35h28.46l33.08,69.3,34.56-69.3h26.79Zm37.14,131.2h0l-30.31-94.24h24.02l17.92,63.75,18.11-63.75h23.65l-30.86,92.4c-3.82,11.33-8.62,20.39-14.41,27.16-5.79,6.78-13.06,12.26-21.81,16.45h0l-8.87-17c4.93-2.09,9.55-5.26,13.86-9.5,4.31-4.26,7.21-9.35,8.69-15.26Zm66.71-131.2h77.24v21.25h-50.45v27.16h45.98v21.62h-45.98v59.32h-26.79v-129.35Zm120.08,0v129.35h-24.02v-129.35h24.02Zm55.07,0v23.1h-24.02v-23.1h24.02Zm0,36.96v92.4h-24.02v-92.4h24.02Zm17.92,0h24.58l13.86,25.13,13.86-25.13h24.58l-25.87,45.27,26.98,47.12h-24.58l-14.97-29.2-14.97,29.2h-24.58l26.98-47.12-25.87-45.27Z"/>
        <path class="cls-3" d="M849.59,381.04c0-2.04-.68-3.9-1.79-5.42-2.11-3.46-5.9-5.81-10.24-5.81h-136.35c-4.33,0-8.12,2.34-10.24,5.8-1.1,1.53-1.79,3.4-1.79,5.43,0,.13,.04,.26,.04,.4s-.04,.26-.04,.4v153.6c0,6.61,4.64,9.25,10.32,5.85l59.58-35.75c5.68-3.4,14.96-3.4,20.62,0l59.59,35.75c5.68,3.4,10.31,.77,10.31-5.85v-153.6c0-.14-.03-.26-.04-.4,0-.14,.04-.27,.04-.4Zm-54.46,49.95l-7.96,7.74c-1.8,1.77-2.93,5.23-2.51,7.73l1.87,10.93c.44,2.49-1.05,3.56-3.28,2.39l-9.82-5.16c-2.23-1.17-5.88-1.17-8.11,0l-9.82,5.16c-2.23,1.18-3.72,.1-3.28-2.39l1.87-10.93c.43-2.49-.71-5.96-2.5-7.73l-7.96-7.74c-1.8-1.76-1.24-3.5,1.26-3.87l10.98-1.6c2.49-.36,5.45-2.51,6.57-4.76l4.92-9.95c1.12-2.27,2.94-2.27,4.06,0l4.91,9.95c1.11,2.26,4.08,4.4,6.56,4.76l10.98,1.6c2.49,.37,3.05,2.11,1.26,3.87Z"/>
      </g>
      <path id="text-1" class="cls-3" d="M220.45,619.4v-33.57h19.93v4.46h-14.03v9.37h11.55l-.74,4.51h-10.81v10.76h14.78v4.46h-20.68Zm39.07-24.69h5.75l.1,.4c.03,.3,.08,.68,.15,1.16,.07,.48,.12,1.03,.17,1.64,.05,.61,.08,1.24,.08,1.86h0c0,3.67-.27,6.77-.82,9.29-.54,2.53-1.37,4.58-2.48,6.15-1.1,1.57-2.51,2.71-4.21,3.4-1.7,.69-3.71,1.04-6.02,1.04h0c-2.61,0-4.47-.75-5.58-2.25-1.1-1.51-1.66-3.58-1.66-6.23h0v-16.46h5.65v16.31c0,1.39,.25,2.51,.74,3.37,.5,.86,1.34,1.29,2.53,1.29h0c1.19,0,2.18-.45,2.98-1.34,.79-.89,1.42-2.06,1.88-3.5,.46-1.43,.79-3.07,.99-4.91,.2-1.83,.3-3.69,.3-5.57h0c0-.69-.03-1.38-.08-2.06-.05-.67-.11-1.28-.2-1.8-.08-.53-.14-.96-.17-1.29h0l-.1-.5Zm10.21,12.94c0-2.21,.3-4.17,.91-5.85,.61-1.69,1.46-3.1,2.53-4.24,1.08-1.14,2.34-2,3.8-2.58,1.45-.58,3.02-.86,4.71-.86h0c1.49,0,2.75,.18,3.79,.55,1.04,.36,1.9,.86,2.56,1.49,.66,.63,1.15,1.37,1.46,2.23,.32,.86,.48,1.79,.48,2.78h0c0,1.19-.33,2.32-.99,3.39-.66,1.08-1.61,2.02-2.86,2.83-1.24,.81-2.73,1.46-4.48,1.93-1.75,.48-3.72,.74-5.9,.77h0c.1,.76,.25,1.48,.47,2.15,.22,.68,.53,1.28,.94,1.79,.42,.52,.96,.92,1.62,1.22,.66,.3,1.49,.45,2.48,.45h0c.73,0,1.5-.08,2.33-.25,.83-.17,1.59-.36,2.28-.6h0c.83-.26,1.64-.56,2.43-.89h0l1.49,3.52c-.86,.43-1.79,.81-2.78,1.14h0c-.86,.3-1.85,.56-2.98,.79-1.12,.23-2.31,.35-3.57,.35h0c-1.92,0-3.55-.29-4.91-.87-1.36-.58-2.46-1.39-3.32-2.45-.86-1.06-1.49-2.33-1.88-3.82-.4-1.49-.6-3.14-.6-4.96h0Zm11.5-9.67c-1.09,0-1.99,.25-2.71,.76-.71,.52-1.28,1.18-1.71,1.99-.43,.81-.74,1.72-.92,2.73-.18,1-.28,2.02-.32,3.04h0c1.59-.07,2.93-.27,4.04-.62,1.11-.34,2.01-.77,2.71-1.29,.69-.51,1.2-1.06,1.51-1.66,.32-.6,.48-1.19,.48-1.79h0c0-.96-.28-1.73-.84-2.31-.56-.58-1.31-.86-2.23-.86h0Zm24.48,1.88c-.6,0-1.19,.15-1.79,.45s-1.12,.7-1.59,1.21c-.46,.52-.84,1.14-1.14,1.86-.3,.73-.45,1.54-.45,2.43h0v13.59h-5.65v-12.5c0-1.98-.13-3.65-.4-4.99-.26-1.34-.55-2.42-.84-3.24h0c-.36-.96-.76-1.74-1.19-2.33h0l4.46-1.79c.3,.36,.61,.81,.94,1.34h0c.26,.46,.53,1.01,.79,1.64,.26,.63,.48,1.37,.64,2.23h0c.66-1.92,1.62-3.3,2.88-4.15,1.26-.84,2.68-1.26,4.26-1.26h0c.76,0,1.47,.09,2.13,.27,.66,.19,.98,.28,.94,.28h0l-1.59,5.5s-.16-.09-.57-.28c-.42-.18-1.04-.27-1.86-.27h0Zm27.67-5.16l-.25,14.68c0,.99,.08,1.9,.23,2.73,.15,.83,.31,1.64,.5,2.45,.18,.81,.35,1.63,.52,2.46,.17,.83,.25,1.74,.25,2.73h0c0,3.5-.89,6.12-2.68,7.83-1.79,1.72-4.2,2.58-7.24,2.58h0c-.99,0-1.98-.09-2.98-.27-.99-.19-1.91-.39-2.75-.62-.85-.23-1.57-.46-2.16-.69s-.99-.4-1.19-.5h0l1.39-4.31c.46,.2,.99,.41,1.57,.62,.58,.21,1.17,.42,1.79,.61,.61,.2,1.24,.36,1.9,.5,.66,.13,1.31,.2,1.93,.2h0c1.85,0,3.19-.56,4.02-1.67,.83-1.1,1.24-2.53,1.24-4.28h0c0-1.59-.33-3.22-.99-4.91h0c-.93,1.75-2.16,3-3.69,3.74-1.54,.75-3.15,1.12-4.84,1.12h0c-2.61,0-4.47-.76-5.57-2.28-1.11-1.52-1.67-3.6-1.67-6.25h0v-16.46h5.65v16.31c0,1.39,.25,2.48,.74,3.27s1.34,1.19,2.53,1.19h0c.63,0,1.3-.18,2.01-.55,.71-.36,1.35-.87,1.93-1.52,.58-.64,1.05-1.42,1.44-2.33,.38-.91,.57-1.89,.57-2.95h0v-13.44h5.8Zm16.07-.6c3.8,0,6.56,1.12,8.28,3.37,1.72,2.25,2.58,5.34,2.58,9.27h0c0,1.85-.23,3.58-.69,5.18-.46,1.61-1.17,2.99-2.11,4.17-.94,1.18-2.12,2.1-3.54,2.78-1.42,.68-3.07,1.02-4.96,1.02h0c-1.88,0-3.51-.29-4.89-.87-1.37-.58-2.5-1.41-3.39-2.5-.89-1.09-1.55-2.41-1.96-3.97-.41-1.55-.61-3.31-.61-5.26h0c0-1.88,.23-3.63,.69-5.24,.46-1.6,1.16-2.99,2.1-4.17,.95-1.17,2.13-2.1,3.55-2.78,1.42-.67,3.07-1.01,4.96-1.01h0Zm-.5,4.17c-.96,0-1.75,.21-2.36,.64-.61,.43-1.09,1.03-1.44,1.81-.34,.77-.58,1.68-.71,2.73-.13,1.04-.2,2.15-.2,3.34h0c0,1.22,.07,2.38,.22,3.47,.15,1.09,.43,2.04,.82,2.85,.4,.81,.93,1.45,1.61,1.91,.68,.46,1.55,.69,2.61,.69h0c.96,0,1.74-.21,2.35-.64,.61-.43,1.09-1.03,1.44-1.81,.35-.77,.59-1.67,.72-2.7,.13-1.02,.2-2.13,.2-3.32h0c0-1.22-.08-2.38-.23-3.47-.15-1.09-.42-2.05-.81-2.88-.4-.83-.94-1.47-1.62-1.93-.67-.46-1.54-.69-2.6-.69h0Zm37.29,21.12h-5.6v-16.02c0-1.39-.25-2.51-.74-3.35-.5-.84-1.34-1.26-2.53-1.26h0c-.76,0-1.5,.19-2.21,.57-.71,.38-1.34,.94-1.9,1.67-.56,.73-1.02,1.61-1.37,2.65-.34,1.04-.52,2.21-.52,3.5h0v12.25h-5.65v-12.5c0-1.98-.13-3.65-.4-4.99-.26-1.34-.55-2.42-.84-3.24h0c-.36-.96-.76-1.74-1.19-2.33h0l4.46-1.79c.33,.36,.66,.81,.99,1.34h0c.26,.46,.53,1.03,.79,1.71,.26,.68,.48,1.45,.64,2.31h0c.86-1.98,2.1-3.41,3.72-4.29,1.62-.87,3.32-1.31,5.11-1.31h0c2.55,0,4.39,.77,5.52,2.3,1.14,1.54,1.72,3.62,1.72,6.23h0v16.56Zm4.75-11.75c0-2.21,.31-4.17,.92-5.85,.61-1.69,1.45-3.1,2.53-4.24,1.07-1.14,2.33-2,3.79-2.58,1.45-.58,3.02-.86,4.71-.86h0c1.49,0,2.75,.18,3.8,.55,1.04,.36,1.89,.86,2.55,1.49,.66,.63,1.15,1.37,1.47,2.23,.31,.86,.47,1.79,.47,2.78h0c0,1.19-.33,2.32-.99,3.39-.66,1.08-1.61,2.02-2.85,2.83-1.24,.81-2.74,1.46-4.49,1.93-1.75,.48-3.72,.74-5.9,.77h0c.1,.76,.26,1.48,.48,2.15,.21,.68,.53,1.28,.94,1.79,.41,.52,.95,.92,1.61,1.22,.66,.3,1.49,.45,2.48,.45h0c.73,0,1.5-.08,2.33-.25,.83-.17,1.59-.36,2.28-.6h0c.83-.26,1.64-.56,2.43-.89h0l1.49,3.52c-.86,.43-1.79,.81-2.78,1.14h0c-.86,.3-1.85,.56-2.98,.79s-2.31,.35-3.57,.35h0c-1.92,0-3.55-.29-4.91-.87-1.36-.58-2.46-1.39-3.32-2.45s-1.49-2.33-1.88-3.82c-.4-1.49-.6-3.14-.6-4.96h0Zm11.5-9.67c-1.09,0-1.99,.25-2.7,.76-.71,.52-1.29,1.18-1.72,1.99-.43,.81-.73,1.72-.91,2.73-.19,1-.29,2.02-.33,3.04h0c1.59-.07,2.94-.27,4.05-.62,1.1-.34,2-.77,2.7-1.29,.69-.51,1.2-1.06,1.52-1.66,.31-.6,.47-1.19,.47-1.79h0c0-.96-.28-1.73-.84-2.31-.56-.58-1.31-.86-2.23-.86h0Zm12.69-12.15h4.76l-.4,12.05h-3.97l-.4-12.05Zm17.21,8.28h0c.96,0,1.9,.1,2.83,.3,.93,.2,1.75,.43,2.48,.69h0c.86,.3,1.65,.61,2.38,.94h0l-1.69,3.87c-.66-.3-1.32-.56-1.98-.79h0c-.56-.2-1.18-.39-1.86-.58-.67-.18-1.34-.27-2-.27h0c-.76,0-1.41,.18-1.96,.55-.54,.36-.81,.91-.81,1.64h0c0,1.88,1.37,3.36,4.12,4.41h0c1.02,.4,1.95,.82,2.78,1.26,.83,.45,1.53,.97,2.1,1.57,.58,.6,1.02,1.28,1.32,2.05,.3,.78,.45,1.7,.45,2.76h0c0,.93-.19,1.83-.58,2.73-.38,.89-.94,1.69-1.69,2.38-.74,.69-1.65,1.25-2.73,1.66-1.07,.42-2.28,.62-3.64,.62h0c-1.09,0-2.17-.12-3.22-.37-1.06-.25-2.01-.53-2.86-.82-.84-.3-1.51-.58-2-.84h0l-.74-.35,1.83-4.17,.64,.35c.43,.26,.98,.55,1.64,.84,.66,.3,1.37,.57,2.13,.81,.76,.25,1.45,.38,2.08,.38h0c1.16,0,2.02-.23,2.58-.69,.56-.46,.84-1.07,.84-1.83h0c0-.86-.31-1.65-.92-2.36-.61-.71-1.52-1.29-2.75-1.76h0c-2.55-.96-4.37-2.05-5.48-3.27-1.1-1.22-1.66-2.81-1.66-4.76h0c0-.93,.21-1.81,.64-2.66,.43-.84,1.01-1.58,1.76-2.23,.75-.64,1.63-1.14,2.66-1.51,1.02-.36,2.13-.55,3.32-.55Zm41.24-8.43l-2.43,3.22c-.1-.1-.4-.28-.91-.55-.52-.26-1-.4-1.47-.4h0c-.3,0-.66,.04-1.09,.12-.43,.09-.84,.27-1.24,.55-.4,.28-.73,.69-1.01,1.22-.28,.53-.43,1.22-.43,2.08h0c0,.36,.03,.78,.08,1.24,.05,.46,.15,.98,.32,1.54h6.15l-.69,4.02h-5.16v19.44c0,1.98-.25,3.65-.76,4.99-.52,1.34-1.19,2.46-2.01,3.37-.83,.91-1.74,1.66-2.75,2.27-1.01,.61-2.01,1.17-3,1.67h0l-2.28-3.77c1.22-.63,2.18-1.3,2.88-2,.69-.71,1.22-1.42,1.57-2.13,.34-.71,.55-1.4,.61-2.06,.07-.66,.1-1.26,.1-1.79h0v-19.98h-4.46v-4.02h4.31c-.13-.5-.22-1.01-.27-1.54-.05-.53-.08-1.02-.08-1.49h0c0-1.32,.24-2.5,.72-3.52,.48-1.02,1.12-1.87,1.93-2.53,.81-.66,1.75-1.17,2.83-1.52,1.07-.34,2.19-.52,3.34-.52h0c1.29,0,2.35,.2,3.17,.61,.83,.42,1.5,.91,2.03,1.47h0Zm20.43,10.07v11.7c0,1.98,.13,3.64,.38,4.98,.24,1.34,.52,2.43,.81,3.25h0c.36,.99,.76,1.77,1.19,2.33h0l-4.41,1.79c-.43-.43-.83-.94-1.19-1.54h0c-.3-.53-.58-1.17-.84-1.91-.26-.74-.43-1.62-.5-2.65h0c-.56,1.98-1.46,3.48-2.7,4.48-1.24,1.01-2.92,1.52-5.04,1.52h0c-1.55,0-2.9-.29-4.04-.87-1.14-.58-2.1-1.4-2.86-2.48-.76-1.07-1.32-2.37-1.69-3.89-.36-1.52-.55-3.21-.55-5.06h0c0-1.88,.29-3.63,.87-5.24,.58-1.6,1.39-2.98,2.43-4.14,1.04-1.16,2.28-2.07,3.74-2.73,1.45-.66,3.06-.99,4.81-.99h0c.99,0,2.03,.07,3.1,.22,1.07,.15,2.07,.31,2.99,.48,.93,.17,1.71,.32,2.36,.47,.64,.15,1.01,.24,1.11,.28h0Zm-11.35,19.98c.83,0,1.59-.28,2.28-.84s1.3-1.3,1.81-2.21c.51-.91,.91-1.95,1.19-3.12,.28-1.17,.42-2.37,.42-3.59h0v-7.14c-.33-.1-.83-.21-1.49-.35-.66-.13-1.26-.2-1.79-.2h0c-1.26,0-2.29,.21-3.09,.64-.81,.43-1.47,1.02-1.96,1.79s-.84,1.67-1.04,2.73c-.2,1.06-.3,2.21-.3,3.47h0c0,1.16,.03,2.26,.1,3.32s.24,2,.53,2.83c.28,.83,.68,1.48,1.21,1.96,.53,.48,1.24,.71,2.13,.71h0Zm32.28-21.02h5.75l.1,.4c.03,.3,.08,.68,.15,1.16,.07,.48,.12,1.03,.17,1.64,.05,.61,.08,1.24,.08,1.86h0c0,3.67-.27,6.77-.82,9.29-.54,2.53-1.37,4.58-2.48,6.15-1.1,1.57-2.51,2.71-4.21,3.4-1.7,.69-3.71,1.04-6.02,1.04h0c-2.61,0-4.47-.75-5.58-2.25-1.1-1.51-1.66-3.58-1.66-6.23h0v-16.46h5.65v16.31c0,1.39,.25,2.51,.74,3.37,.5,.86,1.34,1.29,2.53,1.29h0c1.19,0,2.18-.45,2.98-1.34,.79-.89,1.42-2.06,1.88-3.5,.46-1.43,.79-3.07,.99-4.91,.2-1.83,.3-3.69,.3-5.57h0c0-.69-.03-1.38-.08-2.06-.05-.67-.11-1.28-.2-1.8-.08-.53-.14-.96-.17-1.29h0l-.1-.5Zm21.52-.6c3.8,0,6.56,1.12,8.28,3.37s2.58,5.34,2.58,9.27h0c0,1.85-.23,3.58-.69,5.18-.46,1.61-1.17,2.99-2.11,4.17-.94,1.18-2.12,2.1-3.54,2.78-1.42,.68-3.07,1.02-4.96,1.02h0c-1.88,0-3.51-.29-4.89-.87-1.37-.58-2.5-1.41-3.39-2.5-.89-1.09-1.55-2.41-1.96-3.97-.41-1.55-.61-3.31-.61-5.26h0c0-1.88,.23-3.63,.69-5.24,.46-1.6,1.16-2.99,2.1-4.17,.95-1.17,2.13-2.1,3.55-2.78,1.42-.67,3.07-1.01,4.96-1.01h0Zm-.5,4.17c-.96,0-1.75,.21-2.36,.64-.61,.43-1.09,1.03-1.44,1.81-.34,.77-.58,1.68-.71,2.73-.13,1.04-.2,2.15-.2,3.34h0c0,1.22,.07,2.38,.22,3.47,.15,1.09,.43,2.04,.82,2.85,.4,.81,.93,1.45,1.61,1.91,.68,.46,1.55,.69,2.61,.69h0c.96,0,1.74-.21,2.35-.64,.61-.43,1.09-1.03,1.44-1.81,.35-.77,.59-1.67,.72-2.7,.13-1.02,.2-2.13,.2-3.32h0c0-1.22-.08-2.38-.23-3.47-.15-1.09-.42-2.05-.81-2.88-.4-.83-.94-1.47-1.62-1.93-.67-.46-1.54-.69-2.6-.69h0Zm27.36,1.59c-.6,0-1.19,.15-1.79,.45s-1.12,.7-1.59,1.21c-.46,.52-.84,1.14-1.14,1.86-.3,.73-.45,1.54-.45,2.43h0v13.59h-5.65v-12.5c0-1.98-.13-3.65-.4-4.99-.26-1.34-.55-2.42-.84-3.24h0c-.36-.96-.76-1.74-1.19-2.33h0l4.46-1.79c.3,.36,.61,.81,.94,1.34h0c.26,.46,.53,1.01,.79,1.64,.26,.63,.48,1.37,.64,2.23h0c.66-1.92,1.62-3.3,2.88-4.15,1.26-.84,2.68-1.26,4.26-1.26h0c.76,0,1.47,.09,2.13,.27,.66,.19,.98,.28,.94,.28h0l-1.59,5.5s-.16-.09-.57-.28c-.42-.18-1.04-.27-1.86-.27h0Zm12.45,19.73c-1.75,0-3.09-.52-4.02-1.57-.93-1.04-1.39-2.38-1.39-4.04h0v-19.29h5.65v18.79c0,.76,.12,1.27,.35,1.54,.23,.26,.58,.4,1.04,.4h.43c.15,0,.28-.02,.42-.05h0c.13,0,.28-.02,.45-.05h0l.6,3.57c-.23,.13-.53,.25-.89,.35h0c-.3,.1-.67,.18-1.11,.25-.45,.07-.96,.1-1.52,.1h0Zm-2.48-35.9c1.06,0,1.87,.31,2.43,.94,.56,.63,.84,1.44,.84,2.43h0c0,.99-.29,1.82-.86,2.48-.58,.66-1.43,.99-2.56,.99h0c-1.06,0-1.87-.32-2.45-.97-.58-.64-.87-1.42-.87-2.35h0c0-1.02,.29-1.87,.87-2.53,.58-.66,1.44-.99,2.6-.99h0Zm7.04,15.02v-4.02h4.46l.99-5.8,4.66-1.04v6.84h6.1l-.69,4.02h-5.4v14.68c0,.86,.23,1.41,.69,1.66,.46,.25,.98,.38,1.54,.38h0c.46,0,.93-.03,1.39-.1,.46-.07,.88-.15,1.24-.25h0c.43-.1,.84-.21,1.24-.35h0l.94,3.72-.45,.15c-.3,.13-.74,.27-1.32,.42-.58,.15-1.25,.29-2.03,.41-.77,.11-1.62,.17-2.55,.17h0c-.93,0-1.78-.1-2.56-.3-.77-.2-1.44-.52-2-.96-.56-.45-1-1.02-1.32-1.72-.31-.69-.47-1.55-.47-2.58h0v-15.32h-4.46Zm18.4,8.93c0-2.21,.3-4.17,.91-5.85,.61-1.69,1.46-3.1,2.53-4.24,1.08-1.14,2.34-2,3.8-2.58,1.45-.58,3.02-.86,4.71-.86h0c1.49,0,2.75,.18,3.79,.55,1.04,.36,1.9,.86,2.56,1.49,.66,.63,1.15,1.37,1.46,2.23,.32,.86,.48,1.79,.48,2.78h0c0,1.19-.33,2.32-.99,3.39-.66,1.08-1.61,2.02-2.86,2.83-1.24,.81-2.73,1.46-4.48,1.93-1.75,.48-3.72,.74-5.9,.77h0c.1,.76,.25,1.48,.47,2.15,.22,.68,.53,1.28,.94,1.79,.42,.52,.96,.92,1.62,1.22,.66,.3,1.49,.45,2.48,.45h0c.73,0,1.5-.08,2.33-.25,.83-.17,1.59-.36,2.28-.6h0c.83-.26,1.64-.56,2.43-.89h0l1.49,3.52c-.86,.43-1.79,.81-2.78,1.14h0c-.86,.3-1.85,.56-2.98,.79-1.12,.23-2.31,.35-3.57,.35h0c-1.92,0-3.55-.29-4.91-.87-1.36-.58-2.46-1.39-3.32-2.45-.86-1.06-1.49-2.33-1.88-3.82-.4-1.49-.59-3.14-.59-4.96h0Zm11.5-9.67c-1.09,0-1.99,.25-2.71,.76-.71,.52-1.28,1.18-1.71,1.99-.43,.81-.74,1.72-.92,2.73-.18,1-.28,2.02-.32,3.04h0c1.59-.07,2.93-.27,4.04-.62,1.11-.34,2.01-.77,2.71-1.29,.69-.51,1.2-1.06,1.51-1.66,.32-.6,.48-1.19,.48-1.79h0c0-.96-.28-1.73-.84-2.31-.56-.58-1.31-.86-2.23-.86h0Zm59.99,21.42h-5.6v-16.16c0-1.39-.21-2.49-.64-3.3-.43-.81-1.17-1.21-2.23-1.21h0c-.63,0-1.26,.17-1.9,.52-.65,.35-1.24,.86-1.77,1.52-.53,.66-.96,1.45-1.29,2.38-.33,.93-.5,1.95-.5,3.07h0v13.19h-5.6v-16.16c0-1.39-.21-2.49-.64-3.3-.43-.81-1.17-1.21-2.23-1.21h0c-.66,0-1.31,.19-1.95,.57-.65,.38-1.23,.94-1.74,1.67-.52,.73-.93,1.61-1.24,2.65-.32,1.04-.48,2.21-.48,3.5h0v12.3h-5.65v-12.5c0-1.98-.13-3.65-.4-4.99-.26-1.34-.55-2.42-.84-3.24h0c-.36-.96-.76-1.74-1.19-2.33h0l4.46-1.79c.33,.36,.66,.81,.99,1.34h0c.26,.46,.53,1.03,.79,1.71,.26,.68,.48,1.45,.64,2.31h0c.83-1.98,1.99-3.41,3.5-4.29,1.5-.87,3.09-1.31,4.78-1.31h0c1.69,0,3,.43,3.95,1.29,.94,.86,1.64,1.97,2.1,3.32h0c.89-1.65,2.04-2.84,3.45-3.55,1.4-.71,2.88-1.06,4.43-1.06h0c1.29,0,2.37,.2,3.25,.61,.87,.42,1.57,.99,2.08,1.74,.51,.75,.88,1.64,1.11,2.68,.23,1.04,.35,2.21,.35,3.5h0v16.56Zm16.02-25.29c3.8,0,6.56,1.12,8.28,3.37s2.58,5.34,2.58,9.27h0c0,1.85-.23,3.58-.69,5.18-.46,1.61-1.17,2.99-2.11,4.17-.94,1.18-2.12,2.1-3.54,2.78-1.42,.68-3.07,1.02-4.96,1.02h0c-1.88,0-3.51-.29-4.89-.87-1.37-.58-2.5-1.41-3.39-2.5-.89-1.09-1.55-2.41-1.96-3.97-.41-1.55-.61-3.31-.61-5.26h0c0-1.88,.23-3.63,.69-5.24,.46-1.6,1.16-2.99,2.1-4.17,.95-1.17,2.13-2.1,3.55-2.78,1.42-.67,3.07-1.01,4.96-1.01h0Zm-.5,4.17c-.96,0-1.75,.21-2.36,.64-.61,.43-1.09,1.03-1.44,1.81-.34,.77-.58,1.68-.71,2.73-.13,1.04-.2,2.15-.2,3.34h0c0,1.22,.07,2.38,.22,3.47,.15,1.09,.43,2.04,.82,2.85,.4,.81,.93,1.45,1.61,1.91,.68,.46,1.55,.69,2.61,.69h0c.96,0,1.74-.21,2.35-.64,.61-.43,1.09-1.03,1.44-1.81,.35-.77,.59-1.67,.72-2.7,.13-1.02,.2-2.13,.2-3.32h0c0-1.22-.08-2.38-.23-3.47-.15-1.09-.42-2.05-.81-2.88-.4-.83-.94-1.47-1.62-1.93-.67-.46-1.54-.69-2.6-.69h0Zm30.59-3.57h5.75l.1,.4c.03,.3,.08,.68,.15,1.16,.07,.48,.12,1.03,.17,1.64,.05,.61,.08,1.24,.08,1.86h0c0,3.67-.27,6.77-.82,9.29-.54,2.53-1.37,4.58-2.48,6.15-1.1,1.57-2.51,2.71-4.21,3.4-1.7,.69-3.71,1.04-6.02,1.04h0c-2.61,0-4.47-.75-5.58-2.25-1.1-1.51-1.66-3.58-1.66-6.23h0v-16.46h5.65v16.31c0,1.39,.25,2.51,.74,3.37,.5,.86,1.34,1.29,2.53,1.29h0c1.19,0,2.18-.45,2.98-1.34,.79-.89,1.42-2.06,1.88-3.5,.46-1.43,.79-3.07,.99-4.91,.2-1.83,.3-3.69,.3-5.57h0c0-.69-.03-1.38-.08-2.06-.05-.67-.11-1.28-.2-1.8-.08-.53-.14-.96-.17-1.29h0l-.1-.5Zm16.9,24.89c-1.75,0-3.09-.52-4.02-1.57-.93-1.04-1.39-2.38-1.39-4.04h0v-19.29h5.65v18.79c0,.76,.12,1.27,.35,1.54,.23,.26,.58,.4,1.04,.4h.43c.15,0,.28-.02,.42-.05h0c.13,0,.28-.02,.45-.05h0l.59,3.57c-.23,.13-.53,.25-.89,.35h0c-.3,.1-.67,.18-1.11,.25-.45,.07-.96,.1-1.52,.1h0Zm-2.48-35.9c1.06,0,1.87,.31,2.43,.94,.56,.63,.84,1.44,.84,2.43h0c0,.99-.29,1.82-.86,2.48-.58,.66-1.43,.99-2.56,.99h0c-1.06,0-1.87-.32-2.45-.97-.58-.64-.87-1.42-.87-2.35h0c0-1.02,.29-1.87,.87-2.53,.58-.66,1.44-.99,2.6-.99h0Zm8.48,23.95c0-2.21,.3-4.17,.91-5.85,.61-1.69,1.46-3.1,2.53-4.24,1.08-1.14,2.34-2,3.8-2.58,1.45-.58,3.02-.86,4.71-.86h0c1.49,0,2.75,.18,3.79,.55,1.04,.36,1.9,.86,2.56,1.49,.66,.63,1.15,1.37,1.46,2.23,.32,.86,.48,1.79,.48,2.78h0c0,1.19-.33,2.32-.99,3.39-.66,1.08-1.61,2.02-2.86,2.83-1.24,.81-2.73,1.46-4.48,1.93-1.75,.48-3.72,.74-5.9,.77h0c.1,.76,.25,1.48,.47,2.15,.22,.68,.53,1.28,.94,1.79,.42,.52,.96,.92,1.62,1.22,.66,.3,1.49,.45,2.48,.45h0c.73,0,1.5-.08,2.33-.25,.83-.17,1.59-.36,2.28-.6h0c.83-.26,1.64-.56,2.43-.89h0l1.49,3.52c-.86,.43-1.79,.81-2.78,1.14h0c-.86,.3-1.85,.56-2.98,.79s-2.31,.35-3.57,.35h0c-1.92,0-3.55-.29-4.91-.87-1.36-.58-2.46-1.39-3.32-2.45-.86-1.06-1.49-2.33-1.88-3.82-.4-1.49-.59-3.14-.59-4.96h0Zm11.5-9.67c-1.09,0-1.99,.25-2.71,.76-.71,.52-1.28,1.18-1.71,1.99-.43,.81-.74,1.72-.92,2.73-.18,1-.28,2.02-.32,3.04h0c1.59-.07,2.93-.27,4.04-.62,1.11-.34,2.01-.77,2.71-1.29,.69-.51,1.2-1.06,1.51-1.66,.32-.6,.48-1.19,.48-1.79h0c0-.96-.28-1.73-.84-2.31-.56-.58-1.31-.86-2.23-.86h0Zm20.73-3.87h0c.96,0,1.9,.1,2.83,.3,.93,.2,1.75,.43,2.48,.69h0c.86,.3,1.65,.61,2.38,.94h0l-1.69,3.87c-.66-.3-1.32-.56-1.98-.79h0c-.56-.2-1.18-.39-1.86-.58-.67-.18-1.34-.27-2-.27h0c-.76,0-1.41,.18-1.96,.55-.54,.36-.81,.91-.81,1.64h0c0,1.88,1.37,3.36,4.12,4.41h0c1.02,.4,1.95,.82,2.78,1.26,.83,.45,1.53,.97,2.1,1.57,.58,.6,1.02,1.28,1.32,2.05,.3,.78,.45,1.7,.45,2.76h0c0,.93-.19,1.83-.58,2.73-.38,.89-.94,1.69-1.69,2.38-.74,.69-1.65,1.25-2.73,1.66-1.07,.42-2.28,.62-3.64,.62h0c-1.09,0-2.17-.12-3.22-.37-1.06-.25-2.01-.53-2.86-.82-.84-.3-1.51-.58-2-.84h0l-.74-.35,1.83-4.17,.64,.35c.43,.26,.98,.55,1.64,.84,.66,.3,1.37,.57,2.13,.81,.76,.25,1.45,.38,2.08,.38h0c1.16,0,2.02-.23,2.58-.69,.56-.46,.84-1.07,.84-1.83h0c0-.86-.31-1.65-.92-2.36-.61-.71-1.52-1.29-2.75-1.76h0c-2.55-.96-4.37-2.05-5.48-3.27-1.1-1.22-1.66-2.81-1.66-4.76h0c0-.93,.21-1.81,.64-2.66,.43-.84,1.01-1.58,1.76-2.23,.75-.64,1.63-1.14,2.66-1.51,1.02-.36,2.13-.55,3.32-.55Z"/>
    </g>
  </g>
</svg>