<svg xmlns="http://www.w3.org/2000/svg" version="1.1" xmlns:xlink="http://www.w3.org/1999/xlink" xmlns:svgjs="http://svgjs.dev/svgjs" width="1000" height="1000" viewBox="0 0 1000 1000"><rect width="1000" height="1000" fill="#151a2d"></rect><g transform="matrix(0.7,0,0,0.7,150.0559638848016,369.92820078814975)"><svg viewBox="0 0 306 114" data-background-color="#151a2d" preserveAspectRatio="xMidYMid meet" height="372" width="1000" xmlns="http://www.w3.org/2000/svg" xmlns:xlink="http://www.w3.org/1999/xlink"><g id="tight-bounds" transform="matrix(1,0,0,1,-0.024464212498997995,-0.05612476900566321)"><svg viewBox="0 0 306.04892498605824 114.11224953801131" height="114.11224953801131" width="306.04892498605824"><g><svg viewBox="0 0 306.04892498605824 114.11224953801131" height="114.11224953801131" width="306.04892498605824"><g><svg viewBox="0 0 306.04892498605824 114.11224953801131" height="114.11224953801131" width="306.04892498605824"><g><svg viewBox="0 0 306.04892498605824 114.11224953801131" height="114.11224953801131" width="306.04892498605824"><g><svg viewBox="0 0 306.04892498605824 75.7224" height="75.7224" width="306.04892498605824"><g><svg><g></g><g></g></svg></g><g><svg><g><svg></svg></g><g></g></svg></g><g id="text-0"><svg viewBox="0 0 306.04892498605824 75.7224" height="75.7224" width="306.04892498605824"><g transform="matrix(1,0,0,1,0,0)"><svg width="217.9446" viewBox="1.7999999523162842 -35 134.69000244140625 46.79999923706055" height="75.7224" data-palette-color="#ffffff"><path d="M35.05-35L35.05 0 27.8 0 27.8-21.7 21.55-8.2 15.25-8.2 9-21.65 9 0 1.8 0 1.8-35 9.5-35 18.45-16.25 27.8-35 35.05-35ZM45.1 0.5L45.1 0.5 36.9-25 43.4-25 48.25-7.75 53.15-25 59.55-25 51.2 0Q49.65 4.6 47.3 7.35 44.95 10.1 41.4 11.8L41.4 11.8 39 7.2Q41 6.35 42.75 4.63 44.5 2.9 45.1 0.5ZM63.15-35L84.05-35 84.05-29.25 70.4-29.25 70.4-21.9 82.84-21.9 82.84-16.05 70.4-16.05 70.4 0 63.15 0 63.15-35ZM95.64-35L95.64 0 89.14 0 89.14-35 95.64-35ZM110.54-35L110.54-28.75 104.04-28.75 104.04-35 110.54-35ZM110.54-25L110.54 0 104.04 0 104.04-25 110.54-25ZM115.39-25L122.04-25 125.79-18.2 129.54-25 136.19-25 129.19-12.75 136.49 0 129.84 0 125.79-7.9 121.74 0 115.09 0 122.39-12.75 115.39-25Z" opacity="1" transform="matrix(1,0,0,1,0,0)" fill="#ffffff" class="undefined-text-0" data-fill-palette-color="primary"></path></svg></g><g><svg xmlns="http://www.w3.org/2000/svg" xmlns:xlink="http://www.w3.org/1999/xlink" version="1.1" x="235.8222" y="0" viewBox="5.74399995803833 2.5 88.10499572753906 94.999755859375" enable-background="new 0 0 100 100" xml:space="preserve" height="75.7224" width="70.22672498605824" class="icon-a-0" data-fill-palette-color="accent" id="a-0"><path fill="#ffa400" d="M93.848 8.671c0-1.119-0.376-2.144-0.985-2.979C91.703 3.79 89.624 2.5 87.241 2.5h-74.89c-2.377 0-4.458 1.287-5.623 3.188C6.122 6.527 5.744 7.553 5.744 8.671c0 0.074 0.021 0.143 0.021 0.22 0 0.074-0.021 0.142-0.021 0.218v84.363c0 3.632 2.547 5.079 5.667 3.211l32.721-19.638c3.117-1.866 8.214-1.866 11.327 0l32.728 19.638c3.119 1.868 5.662 0.421 5.662-3.211V9.109c0-0.076-0.018-0.145-0.022-0.218C93.83 8.814 93.848 8.745 93.848 8.671zM63.938 36.104l-4.371 4.249c-0.987 0.972-1.609 2.875-1.376 4.245l1.028 6.002c0.242 1.366-0.574 1.958-1.802 1.312l-5.393-2.835c-1.227-0.644-3.228-0.644-4.454 0l-5.396 2.835c-1.225 0.646-2.044 0.054-1.802-1.312l1.028-6.002c0.235-1.37-0.388-3.273-1.375-4.245l-4.37-4.249c-0.988-0.967-0.679-1.921 0.691-2.124l6.029-0.877c1.367-0.198 2.994-1.377 3.606-2.617l2.7-5.464c0.617-1.245 1.614-1.245 2.229 0l2.699 5.464c0.609 1.24 2.242 2.419 3.605 2.617l6.033 0.877C64.617 34.182 64.924 35.137 63.938 36.104z" data-fill-palette-color="accent"></path></svg></g></svg></g></svg></g><g transform="matrix(1,0,0,1,30.60489249860582,93.5986413024)"><svg viewBox="0 0 244.8391399888466 20.513608235611315" height="20.513608235611315" width="244.8391399888466"><g transform="matrix(1,0,0,1,0,0)"><svg width="244.8391399888466" viewBox="3.5 -36.099998474121094 563.8900146484375 47.25" height="20.513608235611315" data-palette-color="#ffa400"><path d="M3.5 0L3.5-33.85 23.6-33.85 23.6-29.35 9.45-29.35 9.45-19.9 21.1-19.9 20.35-15.35 9.45-15.35 9.45-4.5 24.35-4.5 24.35 0 3.5 0ZM42.9-24.9L48.7-24.9 48.8-24.5Q48.85-24.05 48.95-23.33 49.05-22.6 49.12-21.68 49.2-20.75 49.2-19.8L49.2-19.8Q49.2-14.25 48.37-10.43 47.55-6.6 45.87-4.23 44.2-1.85 41.62-0.8 39.05 0.25 35.55 0.25L35.55 0.25Q31.6 0.25 29.92-2.02 28.25-4.3 28.25-8.3L28.25-8.3 28.25-24.9 33.95-24.9 33.95-8.45Q33.95-6.35 34.7-5.05 35.45-3.75 37.25-3.75L37.25-3.75Q39.05-3.75 40.25-5.1 41.45-6.45 42.15-8.63 42.85-10.8 43.15-13.58 43.45-16.35 43.45-19.2L43.45-19.2Q43.45-20.25 43.37-21.28 43.3-22.3 43.17-23.1 43.05-23.9 43-24.4L43-24.4 42.9-24.9ZM53.2-11.85Q53.2-15.2 54.12-17.75 55.05-20.3 56.67-22.03 58.3-23.75 60.5-24.63 62.7-25.5 65.25-25.5L65.25-25.5Q67.5-25.5 69.07-24.95 70.65-24.4 71.65-23.45 72.65-22.5 73.12-21.2 73.6-19.9 73.6-18.4L73.6-18.4Q73.6-16.6 72.6-14.98 71.6-13.35 69.72-12.13 67.85-10.9 65.2-10.18 62.55-9.45 59.25-9.4L59.25-9.4Q59.4-8.25 59.72-7.23 60.05-6.2 60.67-5.43 61.3-4.65 62.3-4.2 63.3-3.75 64.8-3.75L64.8-3.75Q65.9-3.75 67.15-4 68.4-4.25 69.45-4.6L69.45-4.6Q70.7-5 71.9-5.5L71.9-5.5 73.4-1.95Q72.1-1.3 70.6-0.8L70.6-0.8Q69.3-0.35 67.6 0 65.9 0.35 64 0.35L64 0.35Q61.1 0.35 59.05-0.53 57-1.4 55.7-3 54.4-4.6 53.8-6.85 53.2-9.1 53.2-11.85L53.2-11.85ZM64.8-21.6Q63.15-21.6 62.07-20.83 61-20.05 60.35-18.82 59.7-17.6 59.42-16.07 59.15-14.55 59.1-13L59.1-13Q61.5-13.1 63.17-13.63 64.85-14.15 65.9-14.93 66.95-15.7 67.42-16.6 67.9-17.5 67.9-18.4L67.9-18.4Q67.9-19.85 67.05-20.73 66.2-21.6 64.8-21.6L64.8-21.6ZM89.49-19.7Q88.59-19.7 87.69-19.25 86.79-18.8 86.09-18.03 85.39-17.25 84.94-16.15 84.49-15.05 84.49-13.7L84.49-13.7 84.49 0 78.79 0 78.79-12.6Q78.79-15.6 78.39-17.63 77.99-19.65 77.54-20.9L77.54-20.9Q76.99-22.35 76.34-23.25L76.34-23.25 80.84-25.05Q81.29-24.5 81.79-23.7L81.79-23.7Q82.19-23 82.59-22.05 82.99-21.1 83.24-19.8L83.24-19.8Q84.24-22.7 86.14-23.98 88.04-25.25 90.44-25.25L90.44-25.25Q91.59-25.25 92.59-24.98 93.59-24.7 93.54-24.7L93.54-24.7 91.94-19.15Q91.99-19.15 91.37-19.43 90.74-19.7 89.49-19.7L89.49-19.7ZM117.39-24.9L117.14-10.1Q117.14-8.6 117.37-7.35 117.59-6.1 117.87-4.88 118.14-3.65 118.39-2.4 118.64-1.15 118.64 0.35L118.64 0.35Q118.64 5.65 115.94 8.25 113.24 10.85 108.64 10.85L108.64 10.85Q107.14 10.85 105.64 10.58 104.14 10.3 102.87 9.95 101.59 9.6 100.69 9.25 99.79 8.9 99.49 8.75L99.49 8.75 100.89 4.4Q101.59 4.7 102.47 5.03 103.34 5.35 104.27 5.65 105.19 5.95 106.19 6.15 107.19 6.35 108.14 6.35L108.14 6.35Q110.94 6.35 112.19 4.67 113.44 3 113.44 0.35L113.44 0.35Q113.44-2.05 112.44-4.6L112.44-4.6Q111.04-1.95 108.72-0.83 106.39 0.3 103.84 0.3L103.84 0.3Q99.89 0.3 98.22-2 96.54-4.3 96.54-8.3L96.54-8.3 96.54-24.9 102.24-24.9 102.24-8.45Q102.24-6.35 102.99-5.15 103.74-3.95 105.54-3.95L105.54-3.95Q106.49-3.95 107.57-4.5 108.64-5.05 109.52-6.03 110.39-7 110.97-8.38 111.54-9.75 111.54-11.35L111.54-11.35 111.54-24.9 117.39-24.9ZM133.59-25.5Q139.34-25.5 141.94-22.1 144.54-18.7 144.54-12.75L144.54-12.75Q144.54-9.95 143.84-7.53 143.14-5.1 141.71-3.33 140.29-1.55 138.14-0.53 135.99 0.5 133.14 0.5L133.14 0.5Q130.29 0.5 128.21-0.38 126.14-1.25 124.79-2.9 123.44-4.55 122.81-6.9 122.19-9.25 122.19-12.2L122.19-12.2Q122.19-15.05 122.89-17.48 123.59-19.9 125.01-21.68 126.44-23.45 128.59-24.48 130.74-25.5 133.59-25.5L133.59-25.5ZM133.09-21.3Q131.64-21.3 130.71-20.65 129.79-20 129.26-18.82 128.74-17.65 128.54-16.07 128.34-14.5 128.34-12.7L128.34-12.7Q128.34-10.85 128.56-9.2 128.79-7.55 129.39-6.33 129.99-5.1 131.01-4.4 132.04-3.7 133.64-3.7L133.64-3.7Q135.09-3.7 136.01-4.35 136.94-5 137.46-6.18 137.99-7.35 138.19-8.9 138.39-10.45 138.39-12.25L138.39-12.25Q138.39-14.1 138.16-15.75 137.94-17.4 137.34-18.65 136.74-19.9 135.71-20.6 134.69-21.3 133.09-21.3L133.09-21.3ZM170.69 0L165.04 0 165.04-16.15Q165.04-18.25 164.29-19.53 163.54-20.8 161.74-20.8L161.74-20.8Q160.59-20.8 159.51-20.23 158.44-19.65 157.59-18.55 156.74-17.45 156.21-15.88 155.69-14.3 155.69-12.35L155.69-12.35 155.69 0 149.99 0 149.99-12.6Q149.99-15.6 149.59-17.63 149.19-19.65 148.74-20.9L148.74-20.9Q148.19-22.35 147.54-23.25L147.54-23.25 152.04-25.05Q152.54-24.5 153.04-23.7L153.04-23.7Q153.44-23 153.84-21.98 154.24-20.95 154.49-19.65L154.49-19.65Q155.79-22.65 158.24-23.98 160.69-25.3 163.39-25.3L163.39-25.3Q167.24-25.3 168.96-22.98 170.69-20.65 170.69-16.7L170.69-16.7 170.69 0ZM175.48-11.85Q175.48-15.2 176.41-17.75 177.33-20.3 178.96-22.03 180.58-23.75 182.78-24.63 184.98-25.5 187.53-25.5L187.53-25.5Q189.78-25.5 191.36-24.95 192.93-24.4 193.93-23.45 194.93-22.5 195.41-21.2 195.88-19.9 195.88-18.4L195.88-18.4Q195.88-16.6 194.88-14.98 193.88-13.35 192.01-12.13 190.13-10.9 187.48-10.18 184.83-9.45 181.53-9.4L181.53-9.4Q181.68-8.25 182.01-7.23 182.33-6.2 182.96-5.43 183.58-4.65 184.58-4.2 185.58-3.75 187.08-3.75L187.08-3.75Q188.18-3.75 189.43-4 190.68-4.25 191.73-4.6L191.73-4.6Q192.98-5 194.18-5.5L194.18-5.5 195.68-1.95Q194.38-1.3 192.88-0.8L192.88-0.8Q191.58-0.35 189.88 0 188.18 0.35 186.28 0.35L186.28 0.35Q183.38 0.35 181.33-0.53 179.28-1.4 177.98-3 176.68-4.6 176.08-6.85 175.48-9.1 175.48-11.85L175.48-11.85ZM187.08-21.6Q185.43-21.6 184.36-20.83 183.28-20.05 182.63-18.82 181.98-17.6 181.71-16.07 181.43-14.55 181.38-13L181.38-13Q183.78-13.1 185.46-13.63 187.13-14.15 188.18-14.93 189.23-15.7 189.71-16.6 190.18-17.5 190.18-18.4L190.18-18.4Q190.18-19.85 189.33-20.73 188.48-21.6 187.08-21.6L187.08-21.6ZM199.88-33.85L204.68-33.85 204.28-21.7 200.28-21.7 199.88-33.85ZM217.23-25.5L217.23-25.5Q218.68-25.5 220.08-25.2 221.48-24.9 222.58-24.5L222.58-24.5Q223.88-24.05 224.98-23.55L224.98-23.55 223.28-19.65Q222.28-20.1 221.28-20.45L221.28-20.45Q220.43-20.75 219.4-21.03 218.38-21.3 217.38-21.3L217.38-21.3Q216.23-21.3 215.4-20.75 214.58-20.2 214.58-19.1L214.58-19.1Q214.58-16.25 218.73-14.65L218.73-14.65Q220.28-14.05 221.53-13.38 222.78-12.7 223.65-11.8 224.53-10.9 224.98-9.73 225.43-8.55 225.43-6.95L225.43-6.95Q225.43-5.55 224.85-4.2 224.28-2.85 223.15-1.8 222.03-0.75 220.4-0.13 218.78 0.5 216.73 0.5L216.73 0.5Q215.08 0.5 213.48 0.13 211.88-0.25 210.6-0.7 209.33-1.15 208.58-1.55L208.58-1.55 207.83-1.9 209.68-6.1 210.33-5.75Q210.98-5.35 211.98-4.9 212.98-4.45 214.13-4.08 215.28-3.7 216.23-3.7L216.23-3.7Q217.98-3.7 218.83-4.4 219.68-5.1 219.68-6.25L219.68-6.25Q219.68-7.55 218.75-8.63 217.83-9.7 215.98-10.4L215.98-10.4Q212.13-11.85 210.45-13.7 208.78-15.55 208.78-18.5L208.78-18.5Q208.78-19.9 209.43-21.18 210.08-22.45 211.2-23.43 212.33-24.4 213.88-24.95 215.43-25.5 217.23-25.5ZM258.82-34L256.37-30.75Q256.22-30.9 255.45-31.3 254.67-31.7 253.97-31.7L253.97-31.7Q253.52-31.7 252.87-31.58 252.22-31.45 251.62-31.03 251.02-30.6 250.6-29.8 250.17-29 250.17-27.7L250.17-27.7Q250.17-27.15 250.25-26.45 250.32-25.75 250.57-24.9L250.57-24.9 256.77-24.9 256.07-20.85 250.87-20.85 250.87-1.25Q250.87 1.75 250.1 3.78 249.32 5.8 248.07 7.18 246.82 8.55 245.3 9.47 243.77 10.4 242.27 11.15L242.27 11.15 239.97 7.35Q241.82 6.4 242.87 5.33 243.92 4.25 244.45 3.18 244.97 2.1 245.07 1.1 245.17 0.1 245.17-0.7L245.17-0.7 245.17-20.85 240.67-20.85 240.67-24.9 245.02-24.9Q244.82-25.65 244.75-26.45 244.67-27.25 244.67-27.95L244.67-27.95Q244.67-29.95 245.4-31.5 246.12-33.05 247.35-34.05 248.57-35.05 250.2-35.58 251.82-36.1 253.57-36.1L253.57-36.1Q255.52-36.1 256.77-35.48 258.02-34.85 258.82-34L258.82-34ZM279.42-23.85L279.42-12.05Q279.42-9.05 279.8-7.03 280.17-5 280.62-3.75L280.62-3.75Q281.17-2.25 281.82-1.4L281.82-1.4 277.37 0.4Q276.72-0.25 276.17-1.15L276.17-1.15Q275.72-1.95 275.32-3.08 274.92-4.2 274.82-5.75L274.82-5.75Q273.97-2.75 272.1-1.23 270.22 0.3 267.02 0.3L267.02 0.3Q264.67 0.3 262.95-0.58 261.22-1.45 260.07-3.08 258.92-4.7 258.37-7 257.82-9.3 257.82-12.1L257.82-12.1Q257.82-14.95 258.7-17.38 259.57-19.8 261.15-21.55 262.72-23.3 264.92-24.3 267.12-25.3 269.77-25.3L269.77-25.3Q271.27-25.3 272.9-25.08 274.52-24.85 275.92-24.6 277.32-24.35 278.3-24.13 279.27-23.9 279.42-23.85L279.42-23.85ZM267.97-3.7Q269.22-3.7 270.27-4.55 271.32-5.4 272.1-6.78 272.87-8.15 273.3-9.93 273.72-11.7 273.72-13.55L273.72-13.55 273.72-20.75Q273.22-20.9 272.22-21.1 271.22-21.3 270.42-21.3L270.42-21.3Q268.52-21.3 267.3-20.65 266.07-20 265.32-18.85 264.57-17.7 264.27-16.1 263.97-14.5 263.97-12.6L263.97-12.6Q263.97-10.85 264.07-9.25 264.17-7.65 264.6-6.4 265.02-5.15 265.82-4.42 266.62-3.7 267.97-3.7L267.97-3.7ZM300.52-24.9L306.32-24.9 306.42-24.5Q306.47-24.05 306.57-23.33 306.67-22.6 306.74-21.68 306.82-20.75 306.82-19.8L306.82-19.8Q306.82-14.25 305.99-10.43 305.17-6.6 303.49-4.23 301.82-1.85 299.24-0.8 296.67 0.25 293.17 0.25L293.17 0.25Q289.22 0.25 287.54-2.02 285.87-4.3 285.87-8.3L285.87-8.3 285.87-24.9 291.57-24.9 291.57-8.45Q291.57-6.35 292.32-5.05 293.07-3.75 294.87-3.75L294.87-3.75Q296.67-3.75 297.87-5.1 299.07-6.45 299.77-8.63 300.47-10.8 300.77-13.58 301.07-16.35 301.07-19.2L301.07-19.2Q301.07-20.25 300.99-21.28 300.92-22.3 300.79-23.1 300.67-23.9 300.62-24.4L300.62-24.4 300.52-24.9ZM322.22-25.5Q327.97-25.5 330.57-22.1 333.17-18.7 333.17-12.75L333.17-12.75Q333.17-9.95 332.47-7.53 331.77-5.1 330.34-3.33 328.92-1.55 326.77-0.53 324.62 0.5 321.77 0.5L321.77 0.5Q318.92 0.5 316.84-0.38 314.77-1.25 313.42-2.9 312.07-4.55 311.44-6.9 310.82-9.25 310.82-12.2L310.82-12.2Q310.82-15.05 311.52-17.48 312.22-19.9 313.64-21.68 315.07-23.45 317.22-24.48 319.37-25.5 322.22-25.5L322.22-25.5ZM321.72-21.3Q320.27-21.3 319.34-20.65 318.42-20 317.89-18.82 317.37-17.65 317.17-16.07 316.97-14.5 316.97-12.7L316.97-12.7Q316.97-10.85 317.19-9.2 317.42-7.55 318.02-6.33 318.62-5.1 319.64-4.4 320.67-3.7 322.27-3.7L322.27-3.7Q323.72-3.7 324.64-4.35 325.57-5 326.09-6.18 326.62-7.35 326.82-8.9 327.02-10.45 327.02-12.25L327.02-12.25Q327.02-14.1 326.79-15.75 326.57-17.4 325.97-18.65 325.37-19.9 324.34-20.6 323.32-21.3 321.72-21.3L321.72-21.3ZM349.31-19.7Q348.41-19.7 347.51-19.25 346.61-18.8 345.91-18.03 345.21-17.25 344.76-16.15 344.31-15.05 344.31-13.7L344.31-13.7 344.31 0 338.61 0 338.61-12.6Q338.61-15.6 338.21-17.63 337.81-19.65 337.36-20.9L337.36-20.9Q336.81-22.35 336.16-23.25L336.16-23.25 340.66-25.05Q341.11-24.5 341.61-23.7L341.61-23.7Q342.01-23 342.41-22.05 342.81-21.1 343.06-19.8L343.06-19.8Q344.06-22.7 345.96-23.98 347.86-25.25 350.26-25.25L350.26-25.25Q351.41-25.25 352.41-24.98 353.41-24.7 353.36-24.7L353.36-24.7 351.76-19.15Q351.81-19.15 351.19-19.43 350.56-19.7 349.31-19.7L349.31-19.7ZM361.86 0.2Q359.21 0.2 357.81-1.38 356.41-2.95 356.41-5.45L356.41-5.45 356.41-24.9 362.11-24.9 362.11-5.95Q362.11-4.8 362.46-4.4 362.81-4 363.51-4L363.51-4Q363.71-4 363.94-4 364.16-4 364.36-4.05L364.36-4.05Q364.56-4.05 364.81-4.1L364.81-4.1 365.41-0.5Q365.06-0.3 364.51-0.15L364.51-0.15Q364.06 0 363.39 0.1 362.71 0.2 361.86 0.2L361.86 0.2ZM359.36-36Q360.96-36 361.81-35.05 362.66-34.1 362.66-32.6L362.66-32.6Q362.66-31.1 361.79-30.1 360.91-29.1 359.21-29.1L359.21-29.1Q357.61-29.1 356.74-30.08 355.86-31.05 355.86-32.45L355.86-32.45Q355.86-34 356.74-35 357.61-36 359.36-36L359.36-36ZM366.46-20.85L366.46-24.9 370.96-24.9 371.96-30.75 376.66-31.8 376.66-24.9 382.81-24.9 382.11-20.85 376.66-20.85 376.66-6.05Q376.66-4.75 377.36-4.38 378.06-4 378.91-4L378.91-4Q379.61-4 380.31-4.1 381.01-4.2 381.56-4.35L381.56-4.35Q382.21-4.5 382.81-4.7L382.81-4.7 383.76-0.95 383.31-0.8Q382.86-0.6 381.98-0.38 381.11-0.15 379.93 0.03 378.76 0.2 377.36 0.2L377.36 0.2Q375.96 0.2 374.78-0.1 373.61-0.4 372.76-1.07 371.91-1.75 371.43-2.8 370.96-3.85 370.96-5.4L370.96-5.4 370.96-20.85 366.46-20.85ZM385.01-11.85Q385.01-15.2 385.93-17.75 386.86-20.3 388.48-22.03 390.11-23.75 392.31-24.63 394.51-25.5 397.06-25.5L397.06-25.5Q399.31-25.5 400.88-24.95 402.46-24.4 403.46-23.45 404.46-22.5 404.93-21.2 405.41-19.9 405.41-18.4L405.41-18.4Q405.41-16.6 404.41-14.98 403.41-13.35 401.53-12.13 399.66-10.9 397.01-10.18 394.36-9.45 391.06-9.4L391.06-9.4Q391.21-8.25 391.53-7.23 391.86-6.2 392.48-5.43 393.11-4.65 394.11-4.2 395.11-3.75 396.61-3.75L396.61-3.75Q397.71-3.75 398.96-4 400.21-4.25 401.26-4.6L401.26-4.6Q402.51-5 403.71-5.5L403.71-5.5 405.21-1.95Q403.91-1.3 402.41-0.8L402.41-0.8Q401.11-0.35 399.41 0 397.71 0.35 395.81 0.35L395.81 0.35Q392.91 0.35 390.86-0.53 388.81-1.4 387.51-3 386.21-4.6 385.61-6.85 385.01-9.1 385.01-11.85L385.01-11.85ZM396.61-21.6Q394.96-21.6 393.88-20.83 392.81-20.05 392.16-18.82 391.51-17.6 391.23-16.07 390.96-14.55 390.91-13L390.91-13Q393.31-13.1 394.98-13.63 396.66-14.15 397.71-14.93 398.76-15.7 399.23-16.6 399.71-17.5 399.71-18.4L399.71-18.4Q399.71-19.85 398.86-20.73 398.01-21.6 396.61-21.6L396.61-21.6ZM457.1 0L451.45 0 451.45-16.3Q451.45-18.4 450.8-19.63 450.15-20.85 448.55-20.85L448.55-20.85Q447.6-20.85 446.63-20.33 445.65-19.8 444.85-18.8 444.05-17.8 443.55-16.4 443.05-15 443.05-13.3L443.05-13.3 443.05 0 437.4 0 437.4-16.3Q437.4-18.4 436.75-19.63 436.1-20.85 434.5-20.85L434.5-20.85Q433.5-20.85 432.53-20.28 431.55-19.7 430.78-18.6 430-17.5 429.53-15.93 429.05-14.35 429.05-12.4L429.05-12.4 429.05 0 423.35 0 423.35-12.6Q423.35-15.6 422.95-17.63 422.55-19.65 422.1-20.9L422.1-20.9Q421.55-22.35 420.9-23.25L420.9-23.25 425.4-25.05Q425.9-24.5 426.4-23.7L426.4-23.7Q426.8-23 427.2-21.98 427.6-20.95 427.85-19.65L427.85-19.65Q429.1-22.65 431.38-23.98 433.65-25.3 436.2-25.3L436.2-25.3Q438.75-25.3 440.18-24 441.6-22.7 442.3-20.65L442.3-20.65Q443.65-23.15 445.78-24.23 447.9-25.3 450.25-25.3L450.25-25.3Q452.2-25.3 453.53-24.68 454.85-24.05 455.63-22.93 456.4-21.8 456.75-20.23 457.1-18.65 457.1-16.7L457.1-16.7 457.1 0ZM473.25-25.5Q479-25.5 481.6-22.1 484.2-18.7 484.2-12.75L484.2-12.75Q484.2-9.95 483.5-7.53 482.8-5.1 481.37-3.33 479.95-1.55 477.8-0.53 475.65 0.5 472.8 0.5L472.8 0.5Q469.95 0.5 467.87-0.38 465.8-1.25 464.45-2.9 463.1-4.55 462.47-6.9 461.85-9.25 461.85-12.2L461.85-12.2Q461.85-15.05 462.55-17.48 463.25-19.9 464.67-21.68 466.1-23.45 468.25-24.48 470.4-25.5 473.25-25.5L473.25-25.5ZM472.75-21.3Q471.3-21.3 470.37-20.65 469.45-20 468.92-18.82 468.4-17.65 468.2-16.07 468-14.5 468-12.7L468-12.7Q468-10.85 468.22-9.2 468.45-7.55 469.05-6.33 469.65-5.1 470.67-4.4 471.7-3.7 473.3-3.7L473.3-3.7Q474.75-3.7 475.67-4.35 476.6-5 477.12-6.18 477.65-7.35 477.85-8.9 478.05-10.45 478.05-12.25L478.05-12.25Q478.05-14.1 477.82-15.75 477.6-17.4 477-18.65 476.4-19.9 475.37-20.6 474.35-21.3 472.75-21.3L472.75-21.3ZM503.6-24.9L509.4-24.9 509.5-24.5Q509.55-24.05 509.65-23.33 509.75-22.6 509.82-21.68 509.9-20.75 509.9-19.8L509.9-19.8Q509.9-14.25 509.07-10.43 508.25-6.6 506.57-4.23 504.9-1.85 502.32-0.8 499.75 0.25 496.25 0.25L496.25 0.25Q492.3 0.25 490.62-2.02 488.95-4.3 488.95-8.3L488.95-8.3 488.95-24.9 494.65-24.9 494.65-8.45Q494.65-6.35 495.4-5.05 496.15-3.75 497.95-3.75L497.95-3.75Q499.75-3.75 500.95-5.1 502.15-6.45 502.85-8.63 503.55-10.8 503.85-13.58 504.15-16.35 504.15-19.2L504.15-19.2Q504.15-20.25 504.07-21.28 504-22.3 503.87-23.1 503.75-23.9 503.7-24.4L503.7-24.4 503.6-24.9ZM520.64 0.2Q517.99 0.2 516.59-1.38 515.19-2.95 515.19-5.45L515.19-5.45 515.19-24.9 520.89-24.9 520.89-5.95Q520.89-4.8 521.24-4.4 521.59-4 522.29-4L522.29-4Q522.49-4 522.72-4 522.94-4 523.14-4.05L523.14-4.05Q523.34-4.05 523.59-4.1L523.59-4.1 524.19-0.5Q523.84-0.3 523.29-0.15L523.29-0.15Q522.84 0 522.17 0.1 521.49 0.2 520.64 0.2L520.64 0.2ZM518.14-36Q519.74-36 520.59-35.05 521.44-34.1 521.44-32.6L521.44-32.6Q521.44-31.1 520.57-30.1 519.69-29.1 517.99-29.1L517.99-29.1Q516.39-29.1 515.52-30.08 514.64-31.05 514.64-32.45L514.64-32.45Q514.64-34 515.52-35 516.39-36 518.14-36L518.14-36ZM526.69-11.85Q526.69-15.2 527.61-17.75 528.54-20.3 530.16-22.03 531.79-23.75 533.99-24.63 536.19-25.5 538.74-25.5L538.74-25.5Q540.99-25.5 542.56-24.95 544.14-24.4 545.14-23.45 546.14-22.5 546.61-21.2 547.09-19.9 547.09-18.4L547.09-18.4Q547.09-16.6 546.09-14.98 545.09-13.35 543.21-12.13 541.34-10.9 538.69-10.18 536.04-9.45 532.74-9.4L532.74-9.4Q532.89-8.25 533.21-7.23 533.54-6.2 534.16-5.43 534.79-4.65 535.79-4.2 536.79-3.75 538.29-3.75L538.29-3.75Q539.39-3.75 540.64-4 541.89-4.25 542.94-4.6L542.94-4.6Q544.19-5 545.39-5.5L545.39-5.5 546.89-1.95Q545.59-1.3 544.09-0.8L544.09-0.8Q542.79-0.35 541.09 0 539.39 0.35 537.49 0.35L537.49 0.35Q534.59 0.35 532.54-0.53 530.49-1.4 529.19-3 527.89-4.6 527.29-6.85 526.69-9.1 526.69-11.85L526.69-11.85ZM538.29-21.6Q536.64-21.6 535.56-20.83 534.49-20.05 533.84-18.82 533.19-17.6 532.91-16.07 532.64-14.55 532.59-13L532.59-13Q534.99-13.1 536.66-13.63 538.34-14.15 539.39-14.93 540.44-15.7 540.91-16.6 541.39-17.5 541.39-18.4L541.39-18.4Q541.39-19.85 540.54-20.73 539.69-21.6 538.29-21.6L538.29-21.6ZM559.19-25.5L559.19-25.5Q560.64-25.5 562.04-25.2 563.44-24.9 564.54-24.5L564.54-24.5Q565.84-24.05 566.94-23.55L566.94-23.55 565.24-19.65Q564.24-20.1 563.24-20.45L563.24-20.45Q562.39-20.75 561.36-21.03 560.34-21.3 559.34-21.3L559.34-21.3Q558.19-21.3 557.36-20.75 556.54-20.2 556.54-19.1L556.54-19.1Q556.54-16.25 560.69-14.65L560.69-14.65Q562.24-14.05 563.49-13.38 564.74-12.7 565.61-11.8 566.49-10.9 566.94-9.73 567.39-8.55 567.39-6.95L567.39-6.95Q567.39-5.55 566.81-4.2 566.24-2.85 565.11-1.8 563.99-0.75 562.36-0.13 560.74 0.5 558.69 0.5L558.69 0.5Q557.04 0.5 555.44 0.13 553.84-0.25 552.56-0.7 551.29-1.15 550.54-1.55L550.54-1.55 549.79-1.9 551.64-6.1 552.29-5.75Q552.94-5.35 553.94-4.9 554.94-4.45 556.09-4.08 557.24-3.7 558.19-3.7L558.19-3.7Q559.94-3.7 560.79-4.4 561.64-5.1 561.64-6.25L561.64-6.25Q561.64-7.55 560.71-8.63 559.79-9.7 557.94-10.4L557.94-10.4Q554.09-11.85 552.41-13.7 550.74-15.55 550.74-18.5L550.74-18.5Q550.74-19.9 551.39-21.18 552.04-22.45 553.16-23.43 554.29-24.4 555.84-24.95 557.39-25.5 559.19-25.5Z" opacity="1" transform="matrix(1,0,0,1,0,0)" fill="#ffa400" class="undefined-text-1" data-fill-palette-color="secondary" id="text-1"></path></svg></g></svg></g></svg></g></svg></g></svg></g><defs></defs></svg><rect width="306.04892498605824" height="114.11224953801131" fill="none" stroke="none" visibility="hidden"></rect></g></svg></g></svg>